M48
;Layer_Color=6321
;FILE_FORMAT=2:5
INCH,LZ
;TYPE=PLATED
T1F00S00C0.01181
T3F00S00C0.02800
T4F00S00C0.03000
T5F00S00C0.03543
T6F00S00C0.03937
T7F00S00C0.10630
;TYPE=NON_PLATED
T8F00S00C0.02559
%
T01
X0306299Y0335039
X03092Y04243
X03326Y04516
X03523Y04506
X0369587Y0451083
X0379921Y0444488
X0380512Y0436811
X0379Y04589
X04249Y04484
X04486Y04581
X0432874Y0388287
X04256Y0385
X0425492Y0381398
X04255Y03916
X04168Y03931
X0404134Y039311
X03967Y03901
X0389961Y0390453
X038937Y0382382
X039311Y036998
X0404528Y0372835
Y0358268
X0411024Y0357185
X04205Y03581
X0416831Y0362402
X0415453Y0348425
X04156Y03386
X041565Y0323622
X04074Y03173
X03984Y0316
X038691Y0315945
X0379528Y0322638
X0378445Y0326378
X0369193Y0326083
X03628Y0334
X03583Y03345
X03543Y03409
X036348Y0350193
X0368201
X0372236
X0376476
X03765Y0355
Y03605
X0376476Y0365476
X0372342
X03681Y03654
X036348Y0365476
X03634Y03607
X03635Y03552
X03456Y03511
Y0366
X034439Y0376673
X03375Y03849
X03289Y03784
X0332579Y0370276
X03206Y0372
X03261Y03382
X033002Y0338189
X03394Y03365
X03386Y03269
X0349016Y0325984
X03231Y0331
X03237Y03171
X03893Y03361
X0395571Y0340059
X0401673Y0341043
Y0336614
X03852Y03427
X0380048Y0402145
X0391437Y0406988
X03668Y04065
X0358465Y0404134
X0458268Y0380709
X0449705Y0366339
X0446949Y035689
X0439567
X0450197Y0347539
X0458563Y0334252
X0454331Y0329134
X0442913Y0319488
X0474409Y033376
X0474213Y0380413
X04698Y04
X047Y0418
X0469Y04349
T03
X0424902Y0319134
Y0329134
T04
X0343878Y0320472
X0353878
X0363878
X0373878
T05
X0334646Y0431496
X0354331
T06
X0412136Y041063
X0406658Y0423853
X0412136Y0437077
X0438583
X044406Y0423853
X0438583Y041063
T07
X0310925Y0321752
X031063Y0452362
X0468504Y0452756
Y0321752
T08
X0460532Y0345571
Y0368406
M30
