G04*
G04 #@! TF.GenerationSoftware,Altium Limited,CircuitMaker,2.3.0 (3)*
G04*
G04 Layer_Color=8150272*
%FSLAX25Y25*%
%MOIN*%
G70*
G04*
G04 #@! TF.SameCoordinates,D9861004-D678-4A7D-ADCB-9CC0BAE6BC75*
G04*
G04*
G04 #@! TF.FilePolarity,Negative*
G04*
G01*
G75*
%ADD78C,0.07737*%
%ADD79R,0.07737X0.07737*%
%ADD80C,0.08300*%
%ADD81R,0.08300X0.08300*%
%ADD82C,0.05600*%
%ADD83C,0.06800*%
%ADD84C,0.00800*%
G04:AMPARAMS|DCode=85|XSize=47.37mil|YSize=94.61mil|CornerRadius=23.68mil|HoleSize=0mil|Usage=FLASHONLY|Rotation=90.000|XOffset=0mil|YOffset=0mil|HoleType=Round|Shape=RoundedRectangle|*
%AMROUNDEDRECTD85*
21,1,0.04737,0.04724,0,0,90.0*
21,1,0.00000,0.09461,0,0,90.0*
1,1,0.04737,0.02362,0.00000*
1,1,0.04737,0.02362,0.00000*
1,1,0.04737,-0.02362,0.00000*
1,1,0.04737,-0.02362,0.00000*
%
%ADD85ROUNDEDRECTD85*%
G04:AMPARAMS|DCode=86|XSize=47.37mil|YSize=86.74mil|CornerRadius=23.68mil|HoleSize=0mil|Usage=FLASHONLY|Rotation=90.000|XOffset=0mil|YOffset=0mil|HoleType=Round|Shape=RoundedRectangle|*
%AMROUNDEDRECTD86*
21,1,0.04737,0.03937,0,0,90.0*
21,1,0.00000,0.08674,0,0,90.0*
1,1,0.04737,0.01968,0.00000*
1,1,0.04737,0.01968,0.00000*
1,1,0.04737,-0.01968,0.00000*
1,1,0.04737,-0.01968,0.00000*
%
%ADD86ROUNDEDRECTD86*%
%ADD87C,0.11430*%
D78*
X438583Y410630D02*
D03*
Y437077D02*
D03*
X444060Y423853D02*
D03*
X412136Y437077D02*
D03*
Y410630D02*
D03*
D79*
X406658Y423853D02*
D03*
D80*
X354331Y431496D02*
D03*
D81*
X334646D02*
D03*
D82*
X424902Y329134D02*
D03*
Y319134D02*
D03*
D83*
X373878Y320472D02*
D03*
X363878D02*
D03*
X353878D02*
D03*
X343878D02*
D03*
D84*
X460532Y345571D02*
D03*
Y368406D02*
D03*
D85*
X474311Y374016D02*
D03*
Y339961D02*
D03*
D86*
X458563D02*
D03*
Y374016D02*
D03*
D87*
X468504Y452756D02*
D03*
X310630Y452362D02*
D03*
X310925Y321752D02*
D03*
X468504D02*
D03*
M02*
