G04*
G04 #@! TF.GenerationSoftware,Altium Limited,CircuitMaker,2.3.0 (3)*
G04*
G04 Layer_Color=7318015*
%FSLAX25Y25*%
%MOIN*%
G70*
G04*
G04 #@! TF.SameCoordinates,D9861004-D678-4A7D-ADCB-9CC0BAE6BC75*
G04*
G04*
G04 #@! TF.FilePolarity,Positive*
G04*
G01*
G75*
%ADD17R,0.05905X0.07480*%
%ADD18R,0.01772X0.01968*%
G04:AMPARAMS|DCode=19|XSize=11.81mil|YSize=19.68mil|CornerRadius=1.18mil|HoleSize=0mil|Usage=FLASHONLY|Rotation=0.000|XOffset=0mil|YOffset=0mil|HoleType=Round|Shape=RoundedRectangle|*
%AMROUNDEDRECTD19*
21,1,0.01181,0.01732,0,0,0.0*
21,1,0.00945,0.01968,0,0,0.0*
1,1,0.00236,0.00472,-0.00866*
1,1,0.00236,-0.00472,-0.00866*
1,1,0.00236,-0.00472,0.00866*
1,1,0.00236,0.00472,0.00866*
%
%ADD19ROUNDEDRECTD19*%
%ADD20R,0.05600X0.04000*%
%ADD21R,0.03347X0.02756*%
%ADD22R,0.03937X0.03543*%
%ADD23R,0.03543X0.03937*%
%ADD24R,0.03937X0.03150*%
%ADD25R,0.03937X0.04134*%
%ADD26R,0.03347X0.03543*%
%ADD27R,0.02362X0.04331*%
G04:AMPARAMS|DCode=28|XSize=21.26mil|YSize=25.98mil|CornerRadius=5.53mil|HoleSize=0mil|Usage=FLASHONLY|Rotation=90.000|XOffset=0mil|YOffset=0mil|HoleType=Round|Shape=RoundedRectangle|*
%AMROUNDEDRECTD28*
21,1,0.02126,0.01493,0,0,90.0*
21,1,0.01021,0.02598,0,0,90.0*
1,1,0.01105,0.00747,0.00510*
1,1,0.01105,0.00747,-0.00510*
1,1,0.01105,-0.00747,-0.00510*
1,1,0.01105,-0.00747,0.00510*
%
%ADD28ROUNDEDRECTD28*%
%ADD29R,0.05512X0.03937*%
%ADD30R,0.04724X0.05512*%
%ADD31R,0.03543X0.06102*%
%ADD32R,0.04331X0.02362*%
%ADD33O,0.01181X0.08268*%
%ADD34O,0.08268X0.01181*%
%ADD35R,0.04134X0.03937*%
%ADD36R,0.03347X0.05315*%
%ADD37R,0.07087X0.09449*%
%ADD38R,0.04331X0.04921*%
%ADD39R,0.03740X0.03150*%
G04:AMPARAMS|DCode=40|XSize=35mil|YSize=35mil|CornerRadius=4.38mil|HoleSize=0mil|Usage=FLASHONLY|Rotation=270.000|XOffset=0mil|YOffset=0mil|HoleType=Round|Shape=RoundedRectangle|*
%AMROUNDEDRECTD40*
21,1,0.03500,0.02625,0,0,270.0*
21,1,0.02625,0.03500,0,0,270.0*
1,1,0.00875,-0.01312,-0.01312*
1,1,0.00875,-0.01312,0.01312*
1,1,0.00875,0.01312,0.01312*
1,1,0.00875,0.01312,-0.01312*
%
%ADD40ROUNDEDRECTD40*%
%ADD41R,0.04921X0.04331*%
%ADD42R,0.02756X0.03347*%
%ADD43R,0.03150X0.03937*%
%ADD44R,0.07480X0.05905*%
%ADD45R,0.04921X0.02362*%
%ADD46R,0.04921X0.01181*%
D17*
X444587Y380118D02*
D03*
X432776D02*
D03*
D18*
X450197Y355807D02*
D03*
Y352854D02*
D03*
Y359842D02*
D03*
Y362795D02*
D03*
D19*
X308760Y349016D02*
D03*
X305610D02*
D03*
Y354528D02*
D03*
X308760D02*
D03*
D20*
X361865Y390330D02*
D03*
Y397870D02*
D03*
X353135Y394070D02*
D03*
D21*
X392900Y380239D02*
D03*
Y385161D02*
D03*
X386000Y394121D02*
D03*
Y389200D02*
D03*
X339900Y360539D02*
D03*
Y365461D02*
D03*
X340200Y354761D02*
D03*
Y349839D02*
D03*
D22*
X401700Y379043D02*
D03*
Y384358D02*
D03*
D23*
X410143Y366700D02*
D03*
X415457D02*
D03*
D24*
X371400Y390488D02*
D03*
Y396000D02*
D03*
X389567Y323425D02*
D03*
Y328937D02*
D03*
X408100Y339344D02*
D03*
Y344856D02*
D03*
D25*
X379800Y387747D02*
D03*
Y393653D02*
D03*
X401450Y352553D02*
D03*
Y346648D02*
D03*
D26*
X380341Y382300D02*
D03*
X385459D02*
D03*
D27*
X395374Y323130D02*
D03*
X402854D02*
D03*
X399114Y330217D02*
D03*
D28*
X408000Y349707D02*
D03*
Y353093D02*
D03*
D29*
X443996Y366240D02*
D03*
X435335Y362500D02*
D03*
Y369980D02*
D03*
D30*
X416250Y373769D02*
D03*
X416250Y382431D02*
D03*
X409950Y382431D02*
D03*
Y373769D02*
D03*
D31*
X385925Y406988D02*
D03*
X375492D02*
D03*
Y415453D02*
D03*
X385925D02*
D03*
X385827Y423721D02*
D03*
X375394D02*
D03*
X386024Y432185D02*
D03*
X375590D02*
D03*
D32*
X380512Y447835D02*
D03*
Y440354D02*
D03*
X387598Y444095D02*
D03*
D33*
X381398Y341831D02*
D03*
X379429D02*
D03*
X377461D02*
D03*
X375492D02*
D03*
X373524D02*
D03*
X371555D02*
D03*
X369587D02*
D03*
X367618D02*
D03*
X365650D02*
D03*
X363681D02*
D03*
X361713D02*
D03*
X359744D02*
D03*
Y374114D02*
D03*
X361713D02*
D03*
X363681D02*
D03*
X365650D02*
D03*
X367618D02*
D03*
X369587D02*
D03*
X371555D02*
D03*
X373524D02*
D03*
X375492D02*
D03*
X377461D02*
D03*
X379429D02*
D03*
X381398D02*
D03*
D34*
X354429Y347146D02*
D03*
Y349114D02*
D03*
Y351083D02*
D03*
Y353051D02*
D03*
Y355020D02*
D03*
Y356988D02*
D03*
Y358957D02*
D03*
Y360925D02*
D03*
Y362894D02*
D03*
Y364862D02*
D03*
Y366831D02*
D03*
Y368799D02*
D03*
X386713D02*
D03*
Y366831D02*
D03*
Y364862D02*
D03*
Y362894D02*
D03*
Y360925D02*
D03*
Y358957D02*
D03*
Y356988D02*
D03*
Y355020D02*
D03*
Y353051D02*
D03*
Y351083D02*
D03*
Y349114D02*
D03*
Y347146D02*
D03*
D35*
X338976Y399902D02*
D03*
X333071D02*
D03*
D36*
X338652Y393500D02*
D03*
X345148D02*
D03*
D37*
X443701Y344291D02*
D03*
Y328150D02*
D03*
D38*
X396063Y352362D02*
D03*
Y345669D02*
D03*
X326100Y351046D02*
D03*
Y344354D02*
D03*
D39*
X408957Y323721D02*
D03*
Y329035D02*
D03*
D40*
X383760Y321212D02*
D03*
Y327212D02*
D03*
X375394Y447292D02*
D03*
Y441292D02*
D03*
D41*
X395146Y375100D02*
D03*
X388454D02*
D03*
D42*
X351673Y382972D02*
D03*
X356594D02*
D03*
D43*
X362008Y383169D02*
D03*
X367520D02*
D03*
D44*
X427165Y370177D02*
D03*
Y358366D02*
D03*
D45*
X455508Y344390D02*
D03*
Y347539D02*
D03*
Y366437D02*
D03*
Y369587D02*
D03*
D46*
Y354035D02*
D03*
Y352067D02*
D03*
Y350098D02*
D03*
Y363878D02*
D03*
Y359941D02*
D03*
Y361910D02*
D03*
Y357972D02*
D03*
Y356004D02*
D03*
M02*
