G04*
G04 #@! TF.GenerationSoftware,Altium Limited,CircuitMaker,2.3.0 (3)*
G04*
G04 Layer_Color=20142*
%FSLAX25Y25*%
%MOIN*%
G70*
G04*
G04 #@! TF.SameCoordinates,D9861004-D678-4A7D-ADCB-9CC0BAE6BC75*
G04*
G04*
G04 #@! TF.FilePolarity,Negative*
G04*
G01*
G75*
%ADD47R,0.06706X0.08280*%
%ADD48C,0.05524*%
%ADD49R,0.02572X0.02768*%
G04:AMPARAMS|DCode=50|XSize=15.81mil|YSize=23.68mil|CornerRadius=3.18mil|HoleSize=0mil|Usage=FLASHONLY|Rotation=0.000|XOffset=0mil|YOffset=0mil|HoleType=Round|Shape=RoundedRectangle|*
%AMROUNDEDRECTD50*
21,1,0.01581,0.01732,0,0,0.0*
21,1,0.00945,0.02368,0,0,0.0*
1,1,0.00636,0.00472,-0.00866*
1,1,0.00636,-0.00472,-0.00866*
1,1,0.00636,-0.00472,0.00866*
1,1,0.00636,0.00472,0.00866*
%
%ADD50ROUNDEDRECTD50*%
%ADD51R,0.06400X0.04800*%
%ADD52R,0.04147X0.03556*%
%ADD53R,0.04737X0.04343*%
%ADD54R,0.04343X0.04737*%
%ADD55R,0.04737X0.03950*%
%ADD56R,0.04737X0.04934*%
%ADD57R,0.04147X0.04343*%
%ADD58R,0.03162X0.05131*%
G04:AMPARAMS|DCode=59|XSize=29.26mil|YSize=33.98mil|CornerRadius=9.53mil|HoleSize=0mil|Usage=FLASHONLY|Rotation=90.000|XOffset=0mil|YOffset=0mil|HoleType=Round|Shape=RoundedRectangle|*
%AMROUNDEDRECTD59*
21,1,0.02926,0.01493,0,0,90.0*
21,1,0.01021,0.03398,0,0,90.0*
1,1,0.01905,0.00747,0.00510*
1,1,0.01905,0.00747,-0.00510*
1,1,0.01905,-0.00747,-0.00510*
1,1,0.01905,-0.00747,0.00510*
%
%ADD59ROUNDEDRECTD59*%
%ADD60R,0.06312X0.04737*%
%ADD61R,0.05524X0.06312*%
%ADD62R,0.04343X0.06902*%
%ADD63R,0.05131X0.03162*%
%ADD64O,0.01981X0.09068*%
%ADD65O,0.09068X0.01981*%
%ADD66R,0.04934X0.04737*%
%ADD67R,0.04147X0.06115*%
%ADD68R,0.07887X0.10249*%
%ADD69R,0.05131X0.05721*%
%ADD70R,0.04540X0.03950*%
G04:AMPARAMS|DCode=71|XSize=43mil|YSize=43mil|CornerRadius=8.38mil|HoleSize=0mil|Usage=FLASHONLY|Rotation=270.000|XOffset=0mil|YOffset=0mil|HoleType=Round|Shape=RoundedRectangle|*
%AMROUNDEDRECTD71*
21,1,0.04300,0.02625,0,0,270.0*
21,1,0.02625,0.04300,0,0,270.0*
1,1,0.01675,-0.01312,-0.01312*
1,1,0.01675,-0.01312,0.01312*
1,1,0.01675,0.01312,0.01312*
1,1,0.01675,0.01312,-0.01312*
%
%ADD71ROUNDEDRECTD71*%
%ADD72R,0.05721X0.05131*%
%ADD73R,0.03556X0.04147*%
%ADD74R,0.03950X0.04737*%
%ADD75R,0.08280X0.06706*%
%ADD76R,0.05721X0.03162*%
%ADD77R,0.05721X0.01981*%
%ADD78C,0.07737*%
%ADD79R,0.07737X0.07737*%
%ADD80C,0.08300*%
%ADD81R,0.08300X0.08300*%
%ADD82C,0.05600*%
%ADD83C,0.06800*%
%ADD84C,0.00800*%
G04:AMPARAMS|DCode=85|XSize=47.37mil|YSize=94.61mil|CornerRadius=23.68mil|HoleSize=0mil|Usage=FLASHONLY|Rotation=90.000|XOffset=0mil|YOffset=0mil|HoleType=Round|Shape=RoundedRectangle|*
%AMROUNDEDRECTD85*
21,1,0.04737,0.04724,0,0,90.0*
21,1,0.00000,0.09461,0,0,90.0*
1,1,0.04737,0.02362,0.00000*
1,1,0.04737,0.02362,0.00000*
1,1,0.04737,-0.02362,0.00000*
1,1,0.04737,-0.02362,0.00000*
%
%ADD85ROUNDEDRECTD85*%
G04:AMPARAMS|DCode=86|XSize=47.37mil|YSize=86.74mil|CornerRadius=23.68mil|HoleSize=0mil|Usage=FLASHONLY|Rotation=90.000|XOffset=0mil|YOffset=0mil|HoleType=Round|Shape=RoundedRectangle|*
%AMROUNDEDRECTD86*
21,1,0.04737,0.03937,0,0,90.0*
21,1,0.00000,0.08674,0,0,90.0*
1,1,0.04737,0.01968,0.00000*
1,1,0.04737,0.01968,0.00000*
1,1,0.04737,-0.01968,0.00000*
1,1,0.04737,-0.01968,0.00000*
%
%ADD86ROUNDEDRECTD86*%
%ADD87C,0.11430*%
D47*
X444587Y380118D02*
D03*
X432776D02*
D03*
D48*
X343996Y333366D02*
D03*
X352067Y333268D02*
D03*
X333100Y353300D02*
D03*
X331398Y361122D02*
D03*
X370866Y331594D02*
D03*
X378346D02*
D03*
X433563Y339567D02*
D03*
X392618Y395472D02*
D03*
X464861Y390214D02*
D03*
X420581Y352972D02*
D03*
D49*
X450197Y355807D02*
D03*
Y352854D02*
D03*
Y359842D02*
D03*
Y362795D02*
D03*
D50*
X308760Y349016D02*
D03*
X305610D02*
D03*
Y354528D02*
D03*
X308760D02*
D03*
D51*
X361865Y390330D02*
D03*
Y397870D02*
D03*
X353135Y394070D02*
D03*
D52*
X392900Y380239D02*
D03*
Y385161D02*
D03*
X386000Y394121D02*
D03*
Y389200D02*
D03*
X339900Y360539D02*
D03*
Y365461D02*
D03*
X340200Y354761D02*
D03*
Y349839D02*
D03*
D53*
X401700Y379043D02*
D03*
Y384358D02*
D03*
D54*
X410143Y366700D02*
D03*
X415457D02*
D03*
D55*
X371400Y390488D02*
D03*
Y396000D02*
D03*
X389567Y323425D02*
D03*
Y328937D02*
D03*
X408100Y339344D02*
D03*
Y344856D02*
D03*
D56*
X379800Y387747D02*
D03*
Y393653D02*
D03*
X401450Y352553D02*
D03*
Y346648D02*
D03*
D57*
X380341Y382300D02*
D03*
X385459D02*
D03*
D58*
X395374Y323130D02*
D03*
X402854D02*
D03*
X399114Y330217D02*
D03*
D59*
X408000Y349707D02*
D03*
Y353093D02*
D03*
D60*
X443996Y366240D02*
D03*
X435335Y362500D02*
D03*
Y369980D02*
D03*
D61*
X416250Y373769D02*
D03*
X416250Y382431D02*
D03*
X409950Y382431D02*
D03*
Y373769D02*
D03*
D62*
X385925Y406988D02*
D03*
X375492D02*
D03*
Y415453D02*
D03*
X385925D02*
D03*
X385827Y423721D02*
D03*
X375394D02*
D03*
X386024Y432185D02*
D03*
X375590D02*
D03*
D63*
X380512Y447835D02*
D03*
Y440354D02*
D03*
X387598Y444095D02*
D03*
D64*
X381398Y341831D02*
D03*
X379429D02*
D03*
X377461D02*
D03*
X375492D02*
D03*
X373524D02*
D03*
X371555D02*
D03*
X369587D02*
D03*
X367618D02*
D03*
X365650D02*
D03*
X363681D02*
D03*
X361713D02*
D03*
X359744D02*
D03*
Y374114D02*
D03*
X361713D02*
D03*
X363681D02*
D03*
X365650D02*
D03*
X367618D02*
D03*
X369587D02*
D03*
X371555D02*
D03*
X373524D02*
D03*
X375492D02*
D03*
X377461D02*
D03*
X379429D02*
D03*
X381398D02*
D03*
D65*
X354429Y347146D02*
D03*
Y349114D02*
D03*
Y351083D02*
D03*
Y353051D02*
D03*
Y355020D02*
D03*
Y356988D02*
D03*
Y358957D02*
D03*
Y360925D02*
D03*
Y362894D02*
D03*
Y364862D02*
D03*
Y366831D02*
D03*
Y368799D02*
D03*
X386713D02*
D03*
Y366831D02*
D03*
Y364862D02*
D03*
Y362894D02*
D03*
Y360925D02*
D03*
Y358957D02*
D03*
Y356988D02*
D03*
Y355020D02*
D03*
Y353051D02*
D03*
Y351083D02*
D03*
Y349114D02*
D03*
Y347146D02*
D03*
D66*
X338976Y399902D02*
D03*
X333071D02*
D03*
D67*
X338652Y393500D02*
D03*
X345148D02*
D03*
D68*
X443701Y344291D02*
D03*
Y328150D02*
D03*
D69*
X396063Y352362D02*
D03*
Y345669D02*
D03*
X326100Y351046D02*
D03*
Y344354D02*
D03*
D70*
X408957Y323721D02*
D03*
Y329035D02*
D03*
D71*
X383760Y321212D02*
D03*
Y327212D02*
D03*
X375394Y447292D02*
D03*
Y441292D02*
D03*
D72*
X395146Y375100D02*
D03*
X388454D02*
D03*
D73*
X351673Y382972D02*
D03*
X356594D02*
D03*
D74*
X362008Y383169D02*
D03*
X367520D02*
D03*
D75*
X427165Y370177D02*
D03*
Y358366D02*
D03*
D76*
X455508Y344390D02*
D03*
Y347539D02*
D03*
Y366437D02*
D03*
Y369587D02*
D03*
D77*
Y354035D02*
D03*
Y352067D02*
D03*
Y350098D02*
D03*
Y363878D02*
D03*
Y359941D02*
D03*
Y361910D02*
D03*
Y357972D02*
D03*
Y356004D02*
D03*
D78*
X438583Y410630D02*
D03*
Y437077D02*
D03*
X444060Y423853D02*
D03*
X412136Y437077D02*
D03*
Y410630D02*
D03*
D79*
X406658Y423853D02*
D03*
D80*
X354331Y431496D02*
D03*
D81*
X334646D02*
D03*
D82*
X424902Y329134D02*
D03*
Y319134D02*
D03*
D83*
X373878Y320472D02*
D03*
X363878D02*
D03*
X353878D02*
D03*
X343878D02*
D03*
D84*
X460532Y345571D02*
D03*
Y368406D02*
D03*
D85*
X474311Y374016D02*
D03*
Y339961D02*
D03*
D86*
X458563D02*
D03*
Y374016D02*
D03*
D87*
X468504Y452756D02*
D03*
X310630Y452362D02*
D03*
X310925Y321752D02*
D03*
X468504D02*
D03*
M02*
